<svg width="44" height="44" viewBox="0 0 44 44" fill="none" xmlns="http://www.w3.org/2000/svg">
<rect width="44" height="44" rx="8" fill="#F7F7F7"/>
<path d="M34.8333 28.9999C34.8333 29.8749 34.5883 30.7032 34.1567 31.4032C33.9117 31.8232 33.5967 32.1966 33.235 32.4999C32.4183 33.2349 31.345 33.6666 30.1667 33.6666C28.7433 33.6666 27.4717 33.025 26.6317 32.0216C26.6083 31.9866 26.5733 31.9633 26.55 31.9283C26.41 31.7649 26.2817 31.5899 26.1767 31.4032C25.745 30.7032 25.5 29.8749 25.5 28.9999C25.5 27.5299 26.1767 26.2116 27.25 25.3599C28.055 24.7183 29.07 24.3333 30.1667 24.3333C31.3333 24.3333 32.3833 24.7532 33.2 25.4649C33.34 25.5699 33.4683 25.6983 33.585 25.8266C34.355 26.6666 34.8333 27.7749 34.8333 28.9999Z" stroke="#FF5A2B" stroke-width="2" stroke-miterlimit="10" stroke-linecap="round" stroke-linejoin="round"/>
<path d="M31.9044 28.9766H28.4277" stroke="#FF5A2B" stroke-width="2" stroke-miterlimit="10" stroke-linecap="round" stroke-linejoin="round"/>
<path d="M30.166 27.2732V30.7615" stroke="#FF5A2B" stroke-width="2" stroke-miterlimit="10" stroke-linecap="round" stroke-linejoin="round"/>
<path d="M11.6973 16.6799L21.9989 22.6416L32.2306 16.7149" stroke="#FF5A2B" stroke-width="2" stroke-linecap="round" stroke-linejoin="round"/>
<path d="M22 33.2118V22.6301" stroke="#FF5A2B" stroke-width="2" stroke-linecap="round" stroke-linejoin="round"/>
<path d="M33.2124 18.6983V25.3016C33.2124 25.36 33.2124 25.4066 33.2007 25.4649C32.3841 24.7532 31.3341 24.3333 30.1674 24.3333C29.0707 24.3333 28.0557 24.7183 27.2507 25.3599C26.1774 26.2116 25.5007 27.5299 25.5007 28.9999C25.5007 29.8749 25.7457 30.7033 26.1774 31.4033C26.2824 31.5899 26.4107 31.765 26.5507 31.9283L24.4157 33.1066C23.0857 33.8533 20.9157 33.8533 19.5857 33.1066L13.3557 29.6533C11.9441 28.8716 10.7891 26.9116 10.7891 25.3016V18.6983C10.7891 17.0883 11.9441 15.1283 13.3557 14.3466L19.5857 10.8933C20.9157 10.1466 23.0857 10.1466 24.4157 10.8933L30.6457 14.3466C32.0574 15.1283 33.2124 17.0883 33.2124 18.6983Z" stroke="#FF5A2B" stroke-width="2" stroke-linecap="round" stroke-linejoin="round"/>
</svg>
